<mxfile host="app.diagrams.net" modified="2023-09-06T07:07:40.106Z" agent="Mozilla/5.0 (Windows NT 10.0; Win64; x64) AppleWebKit/537.36 (KHTML, like Gecko) Chrome/116.0.0.0 Safari/537.36 Edg/116.0.1938.69" etag="9C_4CR6ZPMe9HUZ1ALXO" version="21.3.4" type="device">
  <diagram name="Page-1" id="10a91c8b-09ff-31b1-d368-03940ed4cc9e">
    <mxGraphModel dx="471" dy="445" grid="1" gridSize="10" guides="1" tooltips="1" connect="1" arrows="1" fold="1" page="1" pageScale="1" pageWidth="1100" pageHeight="850" background="none" math="0" shadow="0">
      <root>
        <mxCell id="0" />
        <mxCell id="1" parent="0" />
        <mxCell id="62893188c0fa7362-1" value="Jose y Maria" style="whiteSpace=wrap;html=1;rounded=1;shadow=1;labelBackgroundColor=none;strokeWidth=1;fontFamily=Verdana;fontSize=12;align=center;" parent="1" vertex="1">
          <mxGeometry x="610" y="50" width="120" height="60" as="geometry" />
        </mxCell>
        <mxCell id="62893188c0fa7362-2" value="Luis" style="whiteSpace=wrap;html=1;rounded=1;shadow=1;labelBackgroundColor=none;strokeWidth=1;fontFamily=Verdana;fontSize=12;align=center;" parent="1" vertex="1">
          <mxGeometry x="350" y="180" width="120" height="60" as="geometry" />
        </mxCell>
        <mxCell id="62893188c0fa7362-3" value="Karla" style="whiteSpace=wrap;html=1;rounded=1;shadow=1;labelBackgroundColor=none;strokeWidth=1;fontFamily=Verdana;fontSize=12;align=center;" parent="1" vertex="1">
          <mxGeometry x="840" y="190" width="120" height="60" as="geometry" />
        </mxCell>
        <mxCell id="62893188c0fa7362-8" value="&lt;span&gt;Luisito&lt;/span&gt;" style="whiteSpace=wrap;html=1;rounded=1;shadow=1;labelBackgroundColor=none;strokeWidth=1;fontFamily=Verdana;fontSize=12;align=center;" parent="1" vertex="1">
          <mxGeometry x="210" y="300" width="120" height="60" as="geometry" />
        </mxCell>
        <mxCell id="lxHs8u0RE8uuBbtlsv5J-1" value="" style="endArrow=none;html=1;rounded=0;" edge="1" parent="1" source="62893188c0fa7362-2" target="62893188c0fa7362-1">
          <mxGeometry width="50" height="50" relative="1" as="geometry">
            <mxPoint x="580" y="170" as="sourcePoint" />
            <mxPoint x="630" y="120" as="targetPoint" />
          </mxGeometry>
        </mxCell>
        <mxCell id="lxHs8u0RE8uuBbtlsv5J-3" value="" style="endArrow=none;html=1;rounded=0;" edge="1" parent="1" source="62893188c0fa7362-3" target="62893188c0fa7362-1">
          <mxGeometry width="50" height="50" relative="1" as="geometry">
            <mxPoint x="480" y="190" as="sourcePoint" />
            <mxPoint x="620" y="120" as="targetPoint" />
          </mxGeometry>
        </mxCell>
        <mxCell id="lxHs8u0RE8uuBbtlsv5J-4" value="&lt;span&gt;Luisita&lt;/span&gt;" style="whiteSpace=wrap;html=1;rounded=1;shadow=1;labelBackgroundColor=none;strokeWidth=1;fontFamily=Verdana;fontSize=12;align=center;" vertex="1" parent="1">
          <mxGeometry x="350" y="300" width="120" height="60" as="geometry" />
        </mxCell>
        <mxCell id="lxHs8u0RE8uuBbtlsv5J-5" value="&lt;span&gt;Luis angel&lt;/span&gt;" style="whiteSpace=wrap;html=1;rounded=1;shadow=1;labelBackgroundColor=none;strokeWidth=1;fontFamily=Verdana;fontSize=12;align=center;" vertex="1" parent="1">
          <mxGeometry x="490" y="300" width="120" height="60" as="geometry" />
        </mxCell>
        <mxCell id="lxHs8u0RE8uuBbtlsv5J-6" value="" style="endArrow=none;html=1;rounded=0;" edge="1" parent="1" source="62893188c0fa7362-8" target="62893188c0fa7362-2">
          <mxGeometry width="50" height="50" relative="1" as="geometry">
            <mxPoint x="180" y="260" as="sourcePoint" />
            <mxPoint x="320" y="190" as="targetPoint" />
          </mxGeometry>
        </mxCell>
        <mxCell id="lxHs8u0RE8uuBbtlsv5J-7" value="" style="endArrow=none;html=1;rounded=0;" edge="1" parent="1" source="lxHs8u0RE8uuBbtlsv5J-4" target="62893188c0fa7362-2">
          <mxGeometry width="50" height="50" relative="1" as="geometry">
            <mxPoint x="315" y="310" as="sourcePoint" />
            <mxPoint x="385" y="250" as="targetPoint" />
          </mxGeometry>
        </mxCell>
        <mxCell id="lxHs8u0RE8uuBbtlsv5J-8" value="" style="endArrow=none;html=1;rounded=0;" edge="1" parent="1" source="lxHs8u0RE8uuBbtlsv5J-5" target="62893188c0fa7362-2">
          <mxGeometry width="50" height="50" relative="1" as="geometry">
            <mxPoint x="325" y="320" as="sourcePoint" />
            <mxPoint x="395" y="260" as="targetPoint" />
          </mxGeometry>
        </mxCell>
        <mxCell id="lxHs8u0RE8uuBbtlsv5J-9" value="&lt;span&gt;Condition&lt;/span&gt;" style="whiteSpace=wrap;html=1;rounded=1;shadow=1;labelBackgroundColor=none;strokeWidth=1;fontFamily=Verdana;fontSize=12;align=center;" vertex="1" parent="1">
          <mxGeometry x="710" y="300" width="120" height="60" as="geometry" />
        </mxCell>
        <mxCell id="lxHs8u0RE8uuBbtlsv5J-11" value="&lt;span&gt;Condition&lt;/span&gt;" style="whiteSpace=wrap;html=1;rounded=1;shadow=1;labelBackgroundColor=none;strokeWidth=1;fontFamily=Verdana;fontSize=12;align=center;" vertex="1" parent="1">
          <mxGeometry x="940" y="300" width="120" height="60" as="geometry" />
        </mxCell>
        <mxCell id="lxHs8u0RE8uuBbtlsv5J-12" value="" style="endArrow=none;html=1;rounded=0;" edge="1" parent="1" source="lxHs8u0RE8uuBbtlsv5J-9" target="62893188c0fa7362-3">
          <mxGeometry width="50" height="50" relative="1" as="geometry">
            <mxPoint x="660" y="290" as="sourcePoint" />
            <mxPoint x="855" y="270" as="targetPoint" />
          </mxGeometry>
        </mxCell>
        <mxCell id="lxHs8u0RE8uuBbtlsv5J-14" value="" style="endArrow=none;html=1;rounded=0;" edge="1" parent="1" source="lxHs8u0RE8uuBbtlsv5J-11" target="62893188c0fa7362-3">
          <mxGeometry width="50" height="50" relative="1" as="geometry">
            <mxPoint x="805" y="350" as="sourcePoint" />
            <mxPoint x="925" y="270" as="targetPoint" />
          </mxGeometry>
        </mxCell>
        <mxCell id="lxHs8u0RE8uuBbtlsv5J-15" value="&lt;span&gt;Condition&lt;/span&gt;" style="whiteSpace=wrap;html=1;rounded=1;shadow=1;labelBackgroundColor=none;strokeWidth=1;fontFamily=Verdana;fontSize=12;align=center;" vertex="1" parent="1">
          <mxGeometry x="710" y="420" width="120" height="60" as="geometry" />
        </mxCell>
        <mxCell id="lxHs8u0RE8uuBbtlsv5J-16" value="" style="endArrow=none;html=1;rounded=0;" edge="1" parent="1" source="lxHs8u0RE8uuBbtlsv5J-15" target="lxHs8u0RE8uuBbtlsv5J-9">
          <mxGeometry width="50" height="50" relative="1" as="geometry">
            <mxPoint x="650" y="430" as="sourcePoint" />
            <mxPoint x="788" y="350" as="targetPoint" />
          </mxGeometry>
        </mxCell>
        <mxCell id="lxHs8u0RE8uuBbtlsv5J-18" value="&lt;span&gt;Condition&lt;/span&gt;" style="whiteSpace=wrap;html=1;rounded=1;shadow=1;labelBackgroundColor=none;strokeWidth=1;fontFamily=Verdana;fontSize=12;align=center;" vertex="1" parent="1">
          <mxGeometry x="350" y="530" width="120" height="60" as="geometry" />
        </mxCell>
        <mxCell id="lxHs8u0RE8uuBbtlsv5J-19" value="" style="endArrow=none;html=1;rounded=0;" edge="1" parent="1" source="lxHs8u0RE8uuBbtlsv5J-18" target="lxHs8u0RE8uuBbtlsv5J-4">
          <mxGeometry width="50" height="50" relative="1" as="geometry">
            <mxPoint x="315" y="495" as="sourcePoint" />
            <mxPoint x="410" y="425" as="targetPoint" />
          </mxGeometry>
        </mxCell>
        <mxCell id="lxHs8u0RE8uuBbtlsv5J-21" value="&lt;span&gt;Condition&lt;/span&gt;" style="whiteSpace=wrap;html=1;rounded=1;shadow=1;labelBackgroundColor=none;strokeWidth=1;fontFamily=Verdana;fontSize=12;align=center;" vertex="1" parent="1">
          <mxGeometry x="420" y="425" width="120" height="60" as="geometry" />
        </mxCell>
        <mxCell id="lxHs8u0RE8uuBbtlsv5J-22" value="&lt;span&gt;Condition&lt;/span&gt;" style="whiteSpace=wrap;html=1;rounded=1;shadow=1;labelBackgroundColor=none;strokeWidth=1;fontFamily=Verdana;fontSize=12;align=center;" vertex="1" parent="1">
          <mxGeometry x="560" y="420" width="120" height="60" as="geometry" />
        </mxCell>
        <mxCell id="lxHs8u0RE8uuBbtlsv5J-23" value="" style="endArrow=none;html=1;rounded=0;" edge="1" parent="1" source="lxHs8u0RE8uuBbtlsv5J-21" target="lxHs8u0RE8uuBbtlsv5J-5">
          <mxGeometry width="50" height="50" relative="1" as="geometry">
            <mxPoint x="325" y="410" as="sourcePoint" />
            <mxPoint x="530" y="370" as="targetPoint" />
          </mxGeometry>
        </mxCell>
        <mxCell id="lxHs8u0RE8uuBbtlsv5J-24" value="" style="endArrow=none;html=1;rounded=0;" edge="1" parent="1" source="lxHs8u0RE8uuBbtlsv5J-22" target="lxHs8u0RE8uuBbtlsv5J-5">
          <mxGeometry width="50" height="50" relative="1" as="geometry">
            <mxPoint x="470" y="470" as="sourcePoint" />
            <mxPoint x="592" y="370" as="targetPoint" />
          </mxGeometry>
        </mxCell>
        <mxCell id="lxHs8u0RE8uuBbtlsv5J-26" value="&lt;span&gt;Condition&lt;/span&gt;" style="whiteSpace=wrap;html=1;rounded=1;shadow=1;labelBackgroundColor=none;strokeWidth=1;fontFamily=Verdana;fontSize=12;align=center;" vertex="1" parent="1">
          <mxGeometry x="140" y="428" width="120" height="60" as="geometry" />
        </mxCell>
        <mxCell id="lxHs8u0RE8uuBbtlsv5J-27" value="&lt;span&gt;Condition&lt;/span&gt;" style="whiteSpace=wrap;html=1;rounded=1;shadow=1;labelBackgroundColor=none;strokeWidth=1;fontFamily=Verdana;fontSize=12;align=center;" vertex="1" parent="1">
          <mxGeometry x="280" y="423" width="120" height="60" as="geometry" />
        </mxCell>
        <mxCell id="lxHs8u0RE8uuBbtlsv5J-28" value="" style="endArrow=none;html=1;rounded=0;" edge="1" parent="1" source="lxHs8u0RE8uuBbtlsv5J-26" target="62893188c0fa7362-8">
          <mxGeometry width="50" height="50" relative="1" as="geometry">
            <mxPoint x="45" y="413" as="sourcePoint" />
            <mxPoint x="253" y="363" as="targetPoint" />
          </mxGeometry>
        </mxCell>
        <mxCell id="lxHs8u0RE8uuBbtlsv5J-29" value="" style="endArrow=none;html=1;rounded=0;" edge="1" parent="1" source="lxHs8u0RE8uuBbtlsv5J-27" target="62893188c0fa7362-8">
          <mxGeometry width="50" height="50" relative="1" as="geometry">
            <mxPoint x="190" y="473" as="sourcePoint" />
            <mxPoint x="288" y="363" as="targetPoint" />
          </mxGeometry>
        </mxCell>
      </root>
    </mxGraphModel>
  </diagram>
</mxfile>
